<svg width="700" height="251" viewBox="0 0 700 251" fill="none" xmlns="http://www.w3.org/2000/svg">
<rect y="0.499023" width="700" height="250" rx="30" fill="#EDEBEB"/>
<path d="M184.054 50.3433L252.44 200.155C252.484 200.245 252.505 200.345 252.499 200.445C252.494 200.545 252.463 200.642 252.409 200.727C252.356 200.811 252.281 200.881 252.193 200.928C252.105 200.976 252.006 201 251.906 200.999L200.409 200.603C200.294 200.602 200.183 200.567 200.088 200.502C199.993 200.438 199.919 200.347 199.875 200.241L156.427 97.2553C156.38 97.1525 156.305 97.0653 156.211 97.004C156.116 96.9428 156.005 96.9103 155.893 96.9103C155.78 96.9103 155.669 96.9428 155.574 97.004C155.48 97.0653 155.405 97.1525 155.358 97.2553L111.945 200.327C111.9 200.436 111.823 200.529 111.725 200.593C111.626 200.658 111.511 200.691 111.393 200.689L60.0862 200.81C59.9883 200.81 59.8919 200.785 59.8059 200.738C59.7198 200.692 59.6469 200.624 59.5937 200.542C59.5406 200.459 59.5089 200.365 59.5016 200.268C59.4943 200.17 59.5117 200.072 59.552 199.983L127.8 50.3433C127.847 50.2406 127.922 50.1535 128.017 50.0924C128.111 50.0313 128.222 49.9988 128.335 49.9989H183.519C183.632 49.9988 183.743 50.0313 183.837 50.0924C183.932 50.1535 184.007 50.2406 184.054 50.3433Z" fill="#080808"/>
<path d="M155.755 194.609C169.375 194.562 180.386 185.633 180.348 174.667C180.309 163.7 169.237 154.849 155.616 154.896C141.995 154.944 130.985 163.872 131.023 174.839C131.061 185.805 142.134 194.657 155.755 194.609Z" fill="#D8016E"/>
<path d="M313.668 163.575C309.572 163.575 305.892 162.871 302.628 161.463C299.428 160.055 296.868 157.783 294.948 154.647C293.092 151.511 292.164 147.351 292.164 142.167V114.231C292.164 109.047 293.092 104.887 294.948 101.751C296.868 98.6149 299.428 96.3429 302.628 94.9349C305.892 93.5269 309.476 92.8229 313.38 92.8229C317.732 92.8229 321.54 93.5589 324.804 95.0309C328.068 96.5029 330.628 98.5509 332.484 101.175C334.34 103.799 335.268 106.935 335.268 110.583C335.268 112.503 334.82 113.815 333.924 114.519C333.092 115.159 331.844 115.479 330.18 115.479C328.836 115.479 327.652 115.255 326.628 114.807C325.668 114.295 325.156 113.399 325.092 112.119C324.9 110.263 324.452 108.567 323.748 107.031C323.044 105.431 321.892 104.183 320.292 103.287C318.692 102.327 316.484 101.847 313.668 101.847C310.084 101.847 307.268 102.871 305.22 104.919C303.236 106.903 302.244 110.007 302.244 114.231V142.167C302.244 146.391 303.236 149.527 305.22 151.575C307.268 153.559 310.084 154.551 313.668 154.551C317.188 154.551 319.972 153.559 322.02 151.575C324.068 149.527 325.092 146.391 325.092 142.167V134.295H315.396C314.372 134.295 313.572 133.879 312.996 133.047C312.42 132.215 312.132 131.255 312.132 130.167C312.132 129.207 312.42 128.311 312.996 127.479C313.572 126.583 314.372 126.135 315.396 126.135H331.908C332.996 126.135 333.828 126.487 334.404 127.191C334.98 127.831 335.268 128.631 335.268 129.591V142.167C335.268 147.351 334.308 151.511 332.388 154.647C330.468 157.783 327.876 160.055 324.612 161.463C321.348 162.871 317.7 163.575 313.668 163.575ZM365.574 163.767C361.222 163.767 357.382 162.967 354.054 161.367C350.726 159.767 348.102 157.559 346.182 154.743C344.262 151.863 343.302 148.503 343.302 144.663V135.543C343.302 132.151 344.198 129.047 345.99 126.231C347.846 123.415 350.278 121.175 353.286 119.511C356.294 117.783 359.622 116.919 363.27 116.919C366.726 116.919 369.894 117.687 372.774 119.223C375.654 120.695 377.958 122.775 379.686 125.463C381.478 128.151 382.374 131.223 382.374 134.679C382.374 137.367 381.958 139.287 381.126 140.439C380.294 141.591 379.206 142.295 377.862 142.551C376.518 142.807 375.11 142.935 373.638 142.935H353.382V145.143C353.382 148.343 354.534 150.903 356.838 152.823C359.206 154.679 362.214 155.607 365.862 155.607C368.102 155.607 369.926 155.287 371.334 154.647C372.742 154.007 373.926 153.399 374.886 152.823C375.846 152.247 376.742 151.959 377.574 151.959C378.406 151.959 379.11 152.215 379.686 152.727C380.262 153.239 380.71 153.847 381.03 154.551C381.35 155.255 381.51 155.895 381.51 156.471C381.51 157.431 380.838 158.487 379.494 159.639C378.214 160.791 376.39 161.783 374.022 162.615C371.654 163.383 368.838 163.767 365.574 163.767ZM353.382 136.695H369.318C370.726 136.695 371.654 136.503 372.102 136.119C372.614 135.735 372.87 134.967 372.87 133.815C372.87 132.151 372.454 130.615 371.622 129.207C370.79 127.735 369.638 126.615 368.166 125.847C366.694 125.015 365.03 124.599 363.174 124.599C361.382 124.599 359.75 124.983 358.278 125.751C356.806 126.519 355.622 127.575 354.726 128.919C353.83 130.263 353.382 131.831 353.382 133.623V136.695ZM411.137 163.767C406.785 163.767 402.945 162.967 399.617 161.367C396.289 159.767 393.665 157.559 391.745 154.743C389.825 151.863 388.865 148.503 388.865 144.663V135.543C388.865 132.151 389.761 129.047 391.553 126.231C393.409 123.415 395.841 121.175 398.849 119.511C401.857 117.783 405.185 116.919 408.833 116.919C412.289 116.919 415.457 117.687 418.337 119.223C421.217 120.695 423.521 122.775 425.249 125.463C427.041 128.151 427.937 131.223 427.937 134.679C427.937 137.367 427.521 139.287 426.689 140.439C425.857 141.591 424.769 142.295 423.425 142.551C422.081 142.807 420.673 142.935 419.201 142.935H398.945V145.143C398.945 148.343 400.097 150.903 402.401 152.823C404.769 154.679 407.777 155.607 411.425 155.607C413.665 155.607 415.489 155.287 416.897 154.647C418.305 154.007 419.489 153.399 420.449 152.823C421.409 152.247 422.305 151.959 423.137 151.959C423.969 151.959 424.673 152.215 425.249 152.727C425.825 153.239 426.273 153.847 426.593 154.551C426.913 155.255 427.073 155.895 427.073 156.471C427.073 157.431 426.401 158.487 425.057 159.639C423.777 160.791 421.953 161.783 419.585 162.615C417.217 163.383 414.401 163.767 411.137 163.767ZM398.945 136.695H414.881C416.289 136.695 417.217 136.503 417.665 136.119C418.177 135.735 418.433 134.967 418.433 133.815C418.433 132.151 418.017 130.615 417.185 129.207C416.353 127.735 415.201 126.615 413.729 125.847C412.257 125.015 410.593 124.599 408.737 124.599C406.945 124.599 405.313 124.983 403.841 125.751C402.369 126.519 401.185 127.575 400.289 128.919C399.393 130.263 398.945 131.831 398.945 133.623V136.695ZM441.147 162.999C439.739 162.999 438.555 162.647 437.595 161.943C436.699 161.239 436.251 160.471 436.251 159.639V93.6869C436.251 92.7269 436.699 91.9589 437.595 91.3829C438.555 90.7429 439.739 90.4229 441.147 90.4229C442.619 90.4229 443.835 90.7429 444.795 91.3829C445.819 91.9589 446.331 92.7269 446.331 93.6869V136.407L466.395 117.975C466.971 117.399 467.675 117.111 468.507 117.111C469.275 117.111 470.011 117.367 470.715 117.879C471.483 118.327 472.123 118.935 472.635 119.703C473.147 120.407 473.403 121.143 473.403 121.911C473.403 122.295 473.339 122.679 473.211 123.063C473.083 123.383 472.859 123.703 472.539 124.023L460.155 135.063L475.227 156.759C475.611 157.399 475.803 157.975 475.803 158.487C475.803 159.319 475.483 160.119 474.843 160.887C474.267 161.655 473.531 162.295 472.635 162.807C471.803 163.319 470.971 163.575 470.139 163.575C468.987 163.575 468.091 163.095 467.451 162.135L453.339 141.303L446.331 147.639V159.639C446.331 160.471 445.819 161.239 444.795 161.943C443.835 162.647 442.619 162.999 441.147 162.999ZM506.879 162.999C505.535 162.999 504.447 162.679 503.615 162.039C502.783 161.399 502.367 160.631 502.367 159.735V96.0869C502.367 95.1909 502.783 94.4229 503.615 93.7829C504.447 93.1429 505.535 92.8229 506.879 92.8229H523.871C527.903 92.8229 531.551 93.5269 534.815 94.9349C538.143 96.3429 540.735 98.6149 542.591 101.751C544.511 104.887 545.471 109.047 545.471 114.231V141.591C545.471 146.775 544.511 150.935 542.591 154.071C540.735 157.207 538.143 159.479 534.815 160.887C531.551 162.295 527.903 162.999 523.871 162.999H506.879ZM512.543 153.975H523.871C527.455 153.975 530.239 152.983 532.223 150.999C534.271 148.951 535.295 145.815 535.295 141.591V114.231C535.295 110.007 534.271 106.903 532.223 104.919C530.239 102.871 527.455 101.847 523.871 101.847H512.543V153.975ZM576.887 163.767C572.535 163.767 568.695 162.967 565.367 161.367C562.039 159.767 559.415 157.559 557.495 154.743C555.575 151.863 554.615 148.503 554.615 144.663V135.543C554.615 132.151 555.511 129.047 557.303 126.231C559.159 123.415 561.591 121.175 564.599 119.511C567.607 117.783 570.935 116.919 574.583 116.919C578.039 116.919 581.207 117.687 584.087 119.223C586.967 120.695 589.271 122.775 590.999 125.463C592.791 128.151 593.687 131.223 593.687 134.679C593.687 137.367 593.271 139.287 592.439 140.439C591.607 141.591 590.519 142.295 589.175 142.551C587.831 142.807 586.423 142.935 584.951 142.935H564.695V145.143C564.695 148.343 565.847 150.903 568.151 152.823C570.519 154.679 573.527 155.607 577.175 155.607C579.415 155.607 581.239 155.287 582.647 154.647C584.055 154.007 585.239 153.399 586.199 152.823C587.159 152.247 588.055 151.959 588.887 151.959C589.719 151.959 590.423 152.215 590.999 152.727C591.575 153.239 592.023 153.847 592.343 154.551C592.663 155.255 592.823 155.895 592.823 156.471C592.823 157.431 592.151 158.487 590.807 159.639C589.527 160.791 587.703 161.783 585.335 162.615C582.967 163.383 580.151 163.767 576.887 163.767ZM564.695 136.695H580.631C582.039 136.695 582.967 136.503 583.415 136.119C583.927 135.735 584.183 134.967 584.183 133.815C584.183 132.151 583.767 130.615 582.935 129.207C582.103 127.735 580.951 126.615 579.479 125.847C578.007 125.015 576.343 124.599 574.487 124.599C572.695 124.599 571.063 124.983 569.591 125.751C568.119 126.519 566.935 127.575 566.039 128.919C565.143 130.263 564.695 131.831 564.695 133.623V136.695ZM618.609 163.959C617.521 163.959 616.529 163.767 615.633 163.383C614.801 163.063 614.257 162.583 614.001 161.943L597.873 123.063C597.809 122.871 597.713 122.615 597.585 122.295C597.521 121.975 597.489 121.687 597.489 121.431C597.489 120.599 597.841 119.863 598.545 119.223C599.313 118.583 600.177 118.071 601.137 117.687C602.161 117.303 603.121 117.111 604.017 117.111C604.657 117.111 605.265 117.271 605.841 117.591C606.481 117.847 606.897 118.295 607.089 118.935L618.609 149.271L629.937 119.127C630.193 118.487 630.577 118.007 631.089 117.687C631.601 117.303 632.241 117.111 633.009 117.111C633.713 117.111 634.577 117.303 635.601 117.687C636.689 118.071 637.617 118.615 638.385 119.319C639.217 119.959 639.633 120.663 639.633 121.431C639.633 121.751 639.601 122.039 639.537 122.295C639.473 122.551 639.377 122.807 639.249 123.063L623.217 161.943C622.897 162.583 622.289 163.063 621.393 163.383C620.561 163.767 619.633 163.959 618.609 163.959Z" fill="black"/>
</svg>
