<svg width="581" height="151" viewBox="0 0 581 151" fill="none" xmlns="http://www.w3.org/2000/svg">
<path d="M124.554 0.344429L192.94 150.156C192.984 150.246 193.005 150.346 192.999 150.446C192.994 150.546 192.963 150.643 192.909 150.728C192.856 150.812 192.781 150.882 192.693 150.93C192.605 150.977 192.506 151.002 192.406 151L140.909 150.604C140.794 150.603 140.683 150.568 140.588 150.503C140.493 150.439 140.419 150.348 140.375 150.242L96.9268 47.2564C96.8804 47.1536 96.8054 47.0664 96.7106 47.0051C96.6158 46.9439 96.5054 46.9114 96.3925 46.9114C96.2797 46.9114 96.1692 46.9439 96.0745 47.0051C95.9797 47.0664 95.9046 47.1536 95.8582 47.2564L52.4447 150.328C52.3997 150.437 52.3231 150.53 52.2247 150.594C52.1263 150.659 52.0108 150.692 51.8932 150.69L0.58625 150.811C0.488291 150.811 0.391904 150.786 0.305864 150.739C0.219824 150.693 0.146892 150.625 0.0937471 150.543C0.0406021 150.461 0.00891996 150.366 0.00162633 150.269C-0.0056673 150.171 0.0116505 150.073 0.0519864 149.984L68.3004 0.344429C68.3468 0.24173 68.4219 0.154607 68.5167 0.0935113C68.6115 0.0324152 68.7219 -5.34038e-05 68.8346 6.59346e-08H124.019C124.132 -5.34038e-05 124.243 0.0324152 124.337 0.0935113C124.432 0.154607 124.507 0.24173 124.554 0.344429Z" fill="#080808"/>
<path d="M96.2547 144.611C109.875 144.563 120.886 135.635 120.848 124.668C120.809 113.702 109.737 104.85 96.116 104.898C82.4953 104.945 71.4847 113.874 71.523 124.84C71.5613 135.807 82.634 144.658 96.2547 144.611Z" fill="#D8016E"/>
<path d="M254.168 113.576C250.072 113.576 246.392 112.872 243.128 111.464C239.928 110.056 237.368 107.784 235.448 104.648C233.592 101.512 232.664 97.352 232.664 92.168V64.232C232.664 59.048 233.592 54.888 235.448 51.752C237.368 48.616 239.928 46.344 243.128 44.936C246.392 43.528 249.976 42.824 253.88 42.824C258.232 42.824 262.04 43.56 265.304 45.032C268.568 46.504 271.128 48.552 272.984 51.176C274.84 53.8 275.768 56.936 275.768 60.584C275.768 62.504 275.32 63.816 274.424 64.52C273.592 65.16 272.344 65.48 270.68 65.48C269.336 65.48 268.152 65.256 267.128 64.808C266.168 64.296 265.656 63.4 265.592 62.12C265.4 60.264 264.952 58.568 264.248 57.032C263.544 55.432 262.392 54.184 260.792 53.288C259.192 52.328 256.984 51.848 254.168 51.848C250.584 51.848 247.768 52.872 245.72 54.92C243.736 56.904 242.744 60.008 242.744 64.232V92.168C242.744 96.392 243.736 99.528 245.72 101.576C247.768 103.56 250.584 104.552 254.168 104.552C257.688 104.552 260.472 103.56 262.52 101.576C264.568 99.528 265.592 96.392 265.592 92.168V84.296H255.896C254.872 84.296 254.072 83.88 253.496 83.048C252.92 82.216 252.632 81.256 252.632 80.168C252.632 79.208 252.92 78.312 253.496 77.48C254.072 76.584 254.872 76.136 255.896 76.136H272.408C273.496 76.136 274.328 76.488 274.904 77.192C275.48 77.832 275.768 78.632 275.768 79.592V92.168C275.768 97.352 274.808 101.512 272.888 104.648C270.968 107.784 268.376 110.056 265.112 111.464C261.848 112.872 258.2 113.576 254.168 113.576ZM306.074 113.768C301.722 113.768 297.882 112.968 294.554 111.368C291.226 109.768 288.602 107.56 286.682 104.744C284.762 101.864 283.802 98.504 283.802 94.664V85.544C283.802 82.152 284.698 79.048 286.49 76.232C288.346 73.416 290.778 71.176 293.786 69.512C296.794 67.784 300.122 66.92 303.77 66.92C307.226 66.92 310.394 67.688 313.274 69.224C316.154 70.696 318.458 72.776 320.186 75.464C321.978 78.152 322.874 81.224 322.874 84.68C322.874 87.368 322.458 89.288 321.626 90.44C320.794 91.592 319.706 92.296 318.362 92.552C317.018 92.808 315.61 92.936 314.138 92.936H293.882V95.144C293.882 98.344 295.034 100.904 297.338 102.824C299.706 104.68 302.714 105.608 306.362 105.608C308.602 105.608 310.426 105.288 311.834 104.648C313.242 104.008 314.426 103.4 315.386 102.824C316.346 102.248 317.242 101.96 318.074 101.96C318.906 101.96 319.61 102.216 320.186 102.728C320.762 103.24 321.21 103.848 321.53 104.552C321.85 105.256 322.01 105.896 322.01 106.472C322.01 107.432 321.338 108.488 319.994 109.64C318.714 110.792 316.89 111.784 314.522 112.616C312.154 113.384 309.338 113.768 306.074 113.768ZM293.882 86.696H309.818C311.226 86.696 312.154 86.504 312.602 86.12C313.114 85.736 313.37 84.968 313.37 83.816C313.37 82.152 312.954 80.616 312.122 79.208C311.29 77.736 310.138 76.616 308.666 75.848C307.194 75.016 305.53 74.6 303.674 74.6C301.882 74.6 300.25 74.984 298.778 75.752C297.306 76.52 296.122 77.576 295.226 78.92C294.33 80.264 293.882 81.832 293.882 83.624V86.696ZM351.637 113.768C347.285 113.768 343.445 112.968 340.117 111.368C336.789 109.768 334.165 107.56 332.245 104.744C330.325 101.864 329.365 98.504 329.365 94.664V85.544C329.365 82.152 330.261 79.048 332.053 76.232C333.909 73.416 336.341 71.176 339.349 69.512C342.357 67.784 345.685 66.92 349.333 66.92C352.789 66.92 355.957 67.688 358.837 69.224C361.717 70.696 364.021 72.776 365.749 75.464C367.541 78.152 368.437 81.224 368.437 84.68C368.437 87.368 368.021 89.288 367.189 90.44C366.357 91.592 365.269 92.296 363.925 92.552C362.581 92.808 361.173 92.936 359.701 92.936H339.445V95.144C339.445 98.344 340.597 100.904 342.901 102.824C345.269 104.68 348.277 105.608 351.925 105.608C354.165 105.608 355.989 105.288 357.397 104.648C358.805 104.008 359.989 103.4 360.949 102.824C361.909 102.248 362.805 101.96 363.637 101.96C364.469 101.96 365.173 102.216 365.749 102.728C366.325 103.24 366.773 103.848 367.093 104.552C367.413 105.256 367.573 105.896 367.573 106.472C367.573 107.432 366.901 108.488 365.557 109.64C364.277 110.792 362.453 111.784 360.085 112.616C357.717 113.384 354.901 113.768 351.637 113.768ZM339.445 86.696H355.381C356.789 86.696 357.717 86.504 358.165 86.12C358.677 85.736 358.933 84.968 358.933 83.816C358.933 82.152 358.517 80.616 357.685 79.208C356.853 77.736 355.701 76.616 354.229 75.848C352.757 75.016 351.093 74.6 349.237 74.6C347.445 74.6 345.813 74.984 344.341 75.752C342.869 76.52 341.685 77.576 340.789 78.92C339.893 80.264 339.445 81.832 339.445 83.624V86.696ZM381.647 113C380.239 113 379.055 112.648 378.095 111.944C377.199 111.24 376.751 110.472 376.751 109.64V43.688C376.751 42.728 377.199 41.96 378.095 41.384C379.055 40.744 380.239 40.424 381.647 40.424C383.119 40.424 384.335 40.744 385.295 41.384C386.319 41.96 386.831 42.728 386.831 43.688V86.408L406.895 67.976C407.471 67.4 408.175 67.112 409.007 67.112C409.775 67.112 410.511 67.368 411.215 67.88C411.983 68.328 412.623 68.936 413.135 69.704C413.647 70.408 413.903 71.144 413.903 71.912C413.903 72.296 413.839 72.68 413.711 73.064C413.583 73.384 413.359 73.704 413.039 74.024L400.655 85.064L415.727 106.76C416.111 107.4 416.303 107.976 416.303 108.488C416.303 109.32 415.983 110.12 415.343 110.888C414.767 111.656 414.031 112.296 413.135 112.808C412.303 113.32 411.471 113.576 410.639 113.576C409.487 113.576 408.591 113.096 407.951 112.136L393.839 91.304L386.831 97.64V109.64C386.831 110.472 386.319 111.24 385.295 111.944C384.335 112.648 383.119 113 381.647 113ZM447.379 113C446.035 113 444.947 112.68 444.115 112.04C443.283 111.4 442.867 110.632 442.867 109.736V46.088C442.867 45.192 443.283 44.424 444.115 43.784C444.947 43.144 446.035 42.824 447.379 42.824H464.371C468.403 42.824 472.051 43.528 475.315 44.936C478.643 46.344 481.235 48.616 483.091 51.752C485.011 54.888 485.971 59.048 485.971 64.232V91.592C485.971 96.776 485.011 100.936 483.091 104.072C481.235 107.208 478.643 109.48 475.315 110.888C472.051 112.296 468.403 113 464.371 113H447.379ZM453.043 103.976H464.371C467.955 103.976 470.739 102.984 472.723 101C474.771 98.952 475.795 95.816 475.795 91.592V64.232C475.795 60.008 474.771 56.904 472.723 54.92C470.739 52.872 467.955 51.848 464.371 51.848H453.043V103.976ZM517.387 113.768C513.035 113.768 509.195 112.968 505.867 111.368C502.539 109.768 499.915 107.56 497.995 104.744C496.075 101.864 495.115 98.504 495.115 94.664V85.544C495.115 82.152 496.011 79.048 497.803 76.232C499.659 73.416 502.091 71.176 505.099 69.512C508.107 67.784 511.435 66.92 515.083 66.92C518.539 66.92 521.707 67.688 524.587 69.224C527.467 70.696 529.771 72.776 531.499 75.464C533.291 78.152 534.187 81.224 534.187 84.68C534.187 87.368 533.771 89.288 532.939 90.44C532.107 91.592 531.019 92.296 529.675 92.552C528.331 92.808 526.923 92.936 525.451 92.936H505.195V95.144C505.195 98.344 506.347 100.904 508.651 102.824C511.019 104.68 514.027 105.608 517.675 105.608C519.915 105.608 521.739 105.288 523.147 104.648C524.555 104.008 525.739 103.4 526.699 102.824C527.659 102.248 528.555 101.96 529.387 101.96C530.219 101.96 530.923 102.216 531.499 102.728C532.075 103.24 532.523 103.848 532.843 104.552C533.163 105.256 533.323 105.896 533.323 106.472C533.323 107.432 532.651 108.488 531.307 109.64C530.027 110.792 528.203 111.784 525.835 112.616C523.467 113.384 520.651 113.768 517.387 113.768ZM505.195 86.696H521.131C522.539 86.696 523.467 86.504 523.915 86.12C524.427 85.736 524.683 84.968 524.683 83.816C524.683 82.152 524.267 80.616 523.435 79.208C522.603 77.736 521.451 76.616 519.979 75.848C518.507 75.016 516.843 74.6 514.987 74.6C513.195 74.6 511.563 74.984 510.091 75.752C508.619 76.52 507.435 77.576 506.539 78.92C505.643 80.264 505.195 81.832 505.195 83.624V86.696ZM559.109 113.96C558.021 113.96 557.029 113.768 556.133 113.384C555.301 113.064 554.757 112.584 554.501 111.944L538.373 73.064C538.309 72.872 538.213 72.616 538.085 72.296C538.021 71.976 537.989 71.688 537.989 71.432C537.989 70.6 538.341 69.864 539.045 69.224C539.813 68.584 540.677 68.072 541.637 67.688C542.661 67.304 543.621 67.112 544.517 67.112C545.157 67.112 545.765 67.272 546.341 67.592C546.981 67.848 547.397 68.296 547.589 68.936L559.109 99.272L570.437 69.128C570.693 68.488 571.077 68.008 571.589 67.688C572.101 67.304 572.741 67.112 573.509 67.112C574.213 67.112 575.077 67.304 576.101 67.688C577.189 68.072 578.117 68.616 578.885 69.32C579.717 69.96 580.133 70.664 580.133 71.432C580.133 71.752 580.101 72.04 580.037 72.296C579.973 72.552 579.877 72.808 579.749 73.064L563.717 111.944C563.397 112.584 562.789 113.064 561.893 113.384C561.061 113.768 560.133 113.96 559.109 113.96Z" fill="black"/>
</svg>
